%TF.GenerationSoftware,KiCad,Pcbnew,10.0.4*%
%TF.CreationDate,2026-07-16T11:05:54-07:00*%
%TF.ProjectId,adbee,61646265-652e-46b6-9963-61645f706362,v0.1.0*%
%TF.SameCoordinates,Original*%
%TF.FileFunction,Copper,L2,Bot*%
%TF.FilePolarity,Positive*%
%FSLAX46Y46*%
G04 Gerber Fmt 4.6, Leading zero omitted, Abs format (unit mm)*
G04 Created by KiCad (PCBNEW 10.0.4) date 2026-07-16 11:05:54*
%MOMM*%
%LPD*%
G01*
G04 APERTURE LIST*
%TA.AperFunction,ComponentPad*%
%ADD10C,1.600000*%
%TD*%
%TA.AperFunction,ComponentPad*%
%ADD11R,1.408000X1.408000*%
%TD*%
%TA.AperFunction,ComponentPad*%
%ADD12C,1.408000*%
%TD*%
%TA.AperFunction,ComponentPad*%
%ADD13O,2.730000X1.230000*%
%TD*%
%TA.AperFunction,ComponentPad*%
%ADD14O,1.230000X2.730000*%
%TD*%
%TA.AperFunction,ViaPad*%
%ADD15C,0.600000*%
%TD*%
%TA.AperFunction,Conductor*%
%ADD16C,0.400000*%
%TD*%
%TA.AperFunction,Conductor*%
%ADD17C,0.200000*%
%TD*%
G04 APERTURE END LIST*
D10*
%TO.P,M1,1,D0_1*%
%TO.N,unconnected-(M1-D0-Pad1)_1*%
X137085000Y-88885000D03*
%TO.P,M1,2,D1_2*%
%TO.N,unconnected-(M1-D1-Pad2)_1*%
X137085000Y-91425000D03*
%TO.P,M1,3,D2_3*%
%TO.N,unconnected-(M1-D2-Pad3)*%
X137085000Y-93965000D03*
%TO.P,M1,4,D3_4*%
%TO.N,/DLI*%
X137085000Y-96505000D03*
%TO.P,M1,5,D4_5*%
%TO.N,/PSW*%
X137085000Y-99045000D03*
%TO.P,M1,6,D5_6*%
%TO.N,unconnected-(M1-D5-Pad6)*%
X137085000Y-101585000D03*
%TO.P,M1,7,D6_7*%
%TO.N,unconnected-(M1-D6-Pad7)_1*%
X137085000Y-104125000D03*
%TO.P,M1,8,D7_8*%
%TO.N,unconnected-(M1-D7-Pad8)_1*%
X152320000Y-104125000D03*
%TO.P,M1,9,D8_9*%
%TO.N,unconnected-(M1-D8-Pad9)_1*%
X152320000Y-101585000D03*
%TO.P,M1,10,D9_10*%
%TO.N,unconnected-(M1-D9-Pad10)_1*%
X152320000Y-99045000D03*
%TO.P,M1,11,D10_11*%
%TO.N,unconnected-(M1-D10-Pad11)_1*%
X152320000Y-96505000D03*
%TO.P,M1,12,3V3_12*%
%TO.N,3.3V*%
X152320000Y-93965000D03*
%TO.P,M1,13,GND_13*%
%TO.N,GND*%
X152320000Y-91425000D03*
%TO.P,M1,14,5V_14*%
%TO.N,5V*%
X152320000Y-88885000D03*
%TD*%
D11*
%TO.P,J1,1,1_1*%
%TO.N,/ADB_1*%
X148400000Y-116200000D03*
D12*
%TO.P,J1,2,2_2*%
%TO.N,/PSW*%
X141600000Y-116200000D03*
%TO.P,J1,3,3_3*%
%TO.N,5V*%
X148400000Y-113700000D03*
%TO.P,J1,4,4_4*%
%TO.N,GND*%
X141600000Y-113700000D03*
D13*
%TO.P,J1,S1,SHIELD_S1*%
X145000000Y-120000000D03*
D14*
%TO.P,J1,S2,SHIELD__1_S2*%
X138250000Y-119200000D03*
%TO.P,J1,S3,SHIELD__2_S3*%
X151750000Y-119200000D03*
%TD*%
D15*
%TO.N,/ADB_1*%
X141000000Y-110805000D03*
X149000000Y-110805000D03*
%TO.N,3.3V*%
X154000000Y-107000000D03*
%TO.N,/DLI*%
X135000000Y-106305000D03*
%TD*%
%TO.N,5V*%
D16*
X153450000Y-88885000D02*
X154800000Y-90235000D01*
X152320000Y-88885000D02*
X153450000Y-88885000D01*
X154800000Y-90235000D02*
X154800001Y-107299999D01*
X154800001Y-107299999D02*
X148400000Y-113700000D01*
%TO.N,/ADB_1*%
D17*
X149000000Y-110805000D02*
X141000000Y-110805000D01*
%TO.N,3.3V*%
D16*
X154000000Y-95645000D02*
X152320000Y-93965000D01*
X154000000Y-107000000D02*
X154000000Y-95645000D01*
%TO.N,/DLI*%
D17*
X135000000Y-98590000D02*
X135000000Y-106305000D01*
X137085000Y-96505000D02*
X135000000Y-98590000D01*
%TO.N,/PSW*%
X137500000Y-107305000D02*
X137500000Y-112100000D01*
X137085000Y-99045000D02*
X135985000Y-100145000D01*
X137500000Y-112100000D02*
X141600000Y-116200000D01*
X135985000Y-105790000D02*
X137500000Y-107305000D01*
X135985000Y-100145000D02*
X135985000Y-105790000D01*
%TD*%
%TA.AperFunction,Conductor*%
%TO.N,GND*%
G36*
X151746664Y-86500381D02*
G01*
X152007128Y-86520880D01*
X152026337Y-86523923D01*
X152275638Y-86583775D01*
X152294130Y-86589784D01*
X152480743Y-86667081D01*
X152530997Y-86687897D01*
X152548334Y-86696731D01*
X152766926Y-86830684D01*
X152782668Y-86842121D01*
X152977617Y-87008624D01*
X152991375Y-87022382D01*
X153157878Y-87217331D01*
X153169315Y-87233073D01*
X153303268Y-87451665D01*
X153312102Y-87469002D01*
X153410213Y-87705862D01*
X153416226Y-87724368D01*
X153445541Y-87846473D01*
X153442050Y-87916255D01*
X153401387Y-87973073D01*
X153336460Y-87998886D01*
X153267885Y-87985500D01*
X153237286Y-87963101D01*
X153167213Y-87893028D01*
X153001613Y-87772715D01*
X153001612Y-87772714D01*
X153001610Y-87772713D01*
X152906728Y-87724368D01*
X152819223Y-87679781D01*
X152624534Y-87616522D01*
X152449995Y-87588878D01*
X152422352Y-87584500D01*
X152217648Y-87584500D01*
X152193329Y-87588351D01*
X152015465Y-87616522D01*
X151820776Y-87679781D01*
X151638386Y-87772715D01*
X151472786Y-87893028D01*
X151328028Y-88037786D01*
X151207715Y-88203386D01*
X151114781Y-88385776D01*
X151051522Y-88580465D01*
X151019500Y-88782648D01*
X151019500Y-88987351D01*
X151051522Y-89189534D01*
X151114781Y-89384223D01*
X151207715Y-89566613D01*
X151328028Y-89732213D01*
X151472786Y-89876971D01*
X151638385Y-89997284D01*
X151638387Y-89997285D01*
X151638390Y-89997287D01*
X151731080Y-90044515D01*
X151731630Y-90044795D01*
X151782426Y-90092770D01*
X151799221Y-90160591D01*
X151776684Y-90226725D01*
X151731630Y-90265765D01*
X151638649Y-90313141D01*
X151638640Y-90313147D01*
X151491690Y-90419912D01*
X151491689Y-90419913D01*
X152139251Y-91067474D01*
X152074394Y-91104920D01*
X151999920Y-91179394D01*
X151962474Y-91244250D01*
X151314913Y-90596689D01*
X151314912Y-90596690D01*
X151208147Y-90743640D01*
X151208141Y-90743649D01*
X151115244Y-90925968D01*
X151052009Y-91120582D01*
X151020000Y-91322682D01*
X151020000Y-91527317D01*
X151052009Y-91729417D01*
X151115244Y-91924031D01*
X151208140Y-92106349D01*
X151314913Y-92253308D01*
X151314914Y-92253309D01*
X151962474Y-91605748D01*
X151999920Y-91670606D01*
X152074394Y-91745080D01*
X152139250Y-91782524D01*
X151491689Y-92430085D01*
X151638652Y-92536861D01*
X151731628Y-92584234D01*
X151782425Y-92632208D01*
X151799220Y-92700029D01*
X151776683Y-92766164D01*
X151731630Y-92805203D01*
X151638388Y-92852713D01*
X151472786Y-92973028D01*
X151328028Y-93117786D01*
X151207715Y-93283386D01*
X151114781Y-93465776D01*
X151051522Y-93660465D01*
X151019500Y-93862648D01*
X151019500Y-94067351D01*
X151051522Y-94269534D01*
X151114781Y-94464223D01*
X151207715Y-94646613D01*
X151328028Y-94812213D01*
X151472786Y-94956971D01*
X151627749Y-95069556D01*
X151638390Y-95077287D01*
X151729840Y-95123883D01*
X151731080Y-95124515D01*
X151781876Y-95172490D01*
X151798671Y-95240311D01*
X151776134Y-95306446D01*
X151731080Y-95345485D01*
X151638386Y-95392715D01*
X151472786Y-95513028D01*
X151328028Y-95657786D01*
X151207715Y-95823386D01*
X151114781Y-96005776D01*
X151051522Y-96200465D01*
X151019500Y-96402648D01*
X151019500Y-96607351D01*
X151051522Y-96809534D01*
X151114781Y-97004223D01*
X151207715Y-97186613D01*
X151328028Y-97352213D01*
X151472786Y-97496971D01*
X151627749Y-97609556D01*
X151638390Y-97617287D01*
X151729840Y-97663883D01*
X151731080Y-97664515D01*
X151781876Y-97712490D01*
X151798671Y-97780311D01*
X151776134Y-97846446D01*
X151731080Y-97885485D01*
X151638386Y-97932715D01*
X151472786Y-98053028D01*
X151328028Y-98197786D01*
X151207715Y-98363386D01*
X151114781Y-98545776D01*
X151051522Y-98740465D01*
X151019500Y-98942648D01*
X151019500Y-99147351D01*
X151051522Y-99349534D01*
X151114781Y-99544223D01*
X151176055Y-99664478D01*
X151184098Y-99680264D01*
X151207715Y-99726613D01*
X151328028Y-99892213D01*
X151472786Y-100036971D01*
X151627749Y-100149556D01*
X151638390Y-100157287D01*
X151729840Y-100203883D01*
X151731080Y-100204515D01*
X151781876Y-100252490D01*
X151798671Y-100320311D01*
X151776134Y-100386446D01*
X151731080Y-100425485D01*
X151638386Y-100472715D01*
X151472786Y-100593028D01*
X151328028Y-100737786D01*
X151207715Y-100903386D01*
X151114781Y-101085776D01*
X151051522Y-101280465D01*
X151019500Y-101482648D01*
X151019500Y-101687351D01*
X151051522Y-101889534D01*
X151114781Y-102084223D01*
X151207715Y-102266613D01*
X151328028Y-102432213D01*
X151472786Y-102576971D01*
X151618928Y-102683147D01*
X151638390Y-102697287D01*
X151729840Y-102743883D01*
X151731080Y-102744515D01*
X151781876Y-102792490D01*
X151798671Y-102860311D01*
X151776134Y-102926446D01*
X151731080Y-102965485D01*
X151638386Y-103012715D01*
X151472786Y-103133028D01*
X151328028Y-103277786D01*
X151207715Y-103443386D01*
X151114781Y-103625776D01*
X151051522Y-103820465D01*
X151019500Y-104022648D01*
X151019500Y-104227351D01*
X151051522Y-104429534D01*
X151114781Y-104624223D01*
X151207715Y-104806613D01*
X151328028Y-104972213D01*
X151472786Y-105116971D01*
X151627749Y-105229556D01*
X151638390Y-105237287D01*
X151754607Y-105296503D01*
X151820776Y-105330218D01*
X151820778Y-105330218D01*
X151820781Y-105330220D01*
X151925137Y-105364127D01*
X152015465Y-105393477D01*
X152099450Y-105406779D01*
X152217648Y-105425500D01*
X152217649Y-105425500D01*
X152422351Y-105425500D01*
X152422352Y-105425500D01*
X152624534Y-105393477D01*
X152819219Y-105330220D01*
X153001610Y-105237287D01*
X153051837Y-105200794D01*
X153102615Y-105163904D01*
X153168422Y-105140424D01*
X153236475Y-105156250D01*
X153285170Y-105206356D01*
X153299500Y-105264222D01*
X153299500Y-106574684D01*
X153290061Y-106622136D01*
X153230264Y-106766498D01*
X153230261Y-106766510D01*
X153199500Y-106921153D01*
X153199500Y-107078846D01*
X153230261Y-107233489D01*
X153230264Y-107233501D01*
X153290602Y-107379172D01*
X153290609Y-107379185D01*
X153378210Y-107510288D01*
X153378213Y-107510292D01*
X153400950Y-107533029D01*
X153434435Y-107594352D01*
X153429451Y-107664044D01*
X153400950Y-107708391D01*
X149984017Y-111125324D01*
X149922694Y-111158809D01*
X149853002Y-111153825D01*
X149797069Y-111111953D01*
X149772652Y-111046489D01*
X149774719Y-111013451D01*
X149800500Y-110883844D01*
X149800500Y-110726155D01*
X149800499Y-110726153D01*
X149769738Y-110571510D01*
X149769737Y-110571503D01*
X149769735Y-110571498D01*
X149709397Y-110425827D01*
X149709390Y-110425814D01*
X149621789Y-110294711D01*
X149621786Y-110294707D01*
X149510292Y-110183213D01*
X149510288Y-110183210D01*
X149379185Y-110095609D01*
X149379172Y-110095602D01*
X149233501Y-110035264D01*
X149233489Y-110035261D01*
X149078845Y-110004500D01*
X149078842Y-110004500D01*
X148921158Y-110004500D01*
X148921155Y-110004500D01*
X148766510Y-110035261D01*
X148766498Y-110035264D01*
X148620827Y-110095602D01*
X148620814Y-110095609D01*
X148489125Y-110183602D01*
X148422447Y-110204480D01*
X148420234Y-110204500D01*
X141579766Y-110204500D01*
X141512727Y-110184815D01*
X141510875Y-110183602D01*
X141379185Y-110095609D01*
X141379172Y-110095602D01*
X141233501Y-110035264D01*
X141233489Y-110035261D01*
X141078845Y-110004500D01*
X141078842Y-110004500D01*
X140921158Y-110004500D01*
X140921155Y-110004500D01*
X140766510Y-110035261D01*
X140766498Y-110035264D01*
X140620827Y-110095602D01*
X140620814Y-110095609D01*
X140489711Y-110183210D01*
X140489707Y-110183213D01*
X140378213Y-110294707D01*
X140378210Y-110294711D01*
X140290609Y-110425814D01*
X140290602Y-110425827D01*
X140230264Y-110571498D01*
X140230261Y-110571510D01*
X140199500Y-110726153D01*
X140199500Y-110883846D01*
X140230261Y-111038489D01*
X140230264Y-111038501D01*
X140290602Y-111184172D01*
X140290609Y-111184185D01*
X140378210Y-111315288D01*
X140378213Y-111315292D01*
X140489707Y-111426786D01*
X140489711Y-111426789D01*
X140620814Y-111514390D01*
X140620827Y-111514397D01*
X140766498Y-111574735D01*
X140766503Y-111574737D01*
X140921153Y-111605499D01*
X140921156Y-111605500D01*
X140921158Y-111605500D01*
X141078844Y-111605500D01*
X141078845Y-111605499D01*
X141233497Y-111574737D01*
X141379179Y-111514394D01*
X141379185Y-111514390D01*
X141510875Y-111426398D01*
X141577553Y-111405520D01*
X141579766Y-111405500D01*
X148420234Y-111405500D01*
X148487273Y-111425185D01*
X148489125Y-111426398D01*
X148620814Y-111514390D01*
X148620827Y-111514397D01*
X148766498Y-111574735D01*
X148766503Y-111574737D01*
X148921153Y-111605499D01*
X148921156Y-111605500D01*
X148921158Y-111605500D01*
X149078844Y-111605500D01*
X149208451Y-111579719D01*
X149278043Y-111585946D01*
X149333220Y-111628809D01*
X149356465Y-111694698D01*
X149340397Y-111762695D01*
X149320324Y-111789017D01*
X148642241Y-112467100D01*
X148580918Y-112500585D01*
X148535164Y-112501893D01*
X148494797Y-112495500D01*
X148494796Y-112495500D01*
X148305204Y-112495500D01*
X148305200Y-112495500D01*
X148117949Y-112525157D01*
X148117946Y-112525157D01*
X148117945Y-112525158D01*
X148059482Y-112544153D01*
X147937627Y-112583747D01*
X147768703Y-112669819D01*
X147615319Y-112781260D01*
X147481260Y-112915319D01*
X147369819Y-113068703D01*
X147283747Y-113237627D01*
X147225157Y-113417949D01*
X147195500Y-113605199D01*
X147195500Y-113794800D01*
X147221478Y-113958820D01*
X147225158Y-113982055D01*
X147264750Y-114103905D01*
X147283747Y-114162372D01*
X147369681Y-114331026D01*
X147369819Y-114331296D01*
X147481259Y-114484679D01*
X147615321Y-114618741D01*
X147639566Y-114636356D01*
X147768705Y-114730182D01*
X147802004Y-114747148D01*
X147829220Y-114761015D01*
X147880016Y-114808988D01*
X147896812Y-114876809D01*
X147874275Y-114942944D01*
X147819561Y-114986396D01*
X147772927Y-114995500D01*
X147648130Y-114995500D01*
X147648123Y-114995501D01*
X147588516Y-115001908D01*
X147453671Y-115052202D01*
X147453664Y-115052206D01*
X147338455Y-115138452D01*
X147338452Y-115138455D01*
X147252206Y-115253664D01*
X147252202Y-115253671D01*
X147201908Y-115388517D01*
X147199027Y-115415319D01*
X147195501Y-115448123D01*
X147195500Y-115448135D01*
X147195500Y-116951870D01*
X147195501Y-116951876D01*
X147201908Y-117011483D01*
X147252202Y-117146328D01*
X147252206Y-117146335D01*
X147338452Y-117261544D01*
X147338455Y-117261547D01*
X147453664Y-117347793D01*
X147453671Y-117347797D01*
X147588517Y-117398091D01*
X147588516Y-117398091D01*
X147595444Y-117398835D01*
X147648127Y-117404500D01*
X149151872Y-117404499D01*
X149211483Y-117398091D01*
X149346331Y-117347796D01*
X149461546Y-117261546D01*
X149547796Y-117146331D01*
X149598091Y-117011483D01*
X149604500Y-116951873D01*
X149604499Y-115448128D01*
X149598091Y-115388517D01*
X149558086Y-115281259D01*
X149547797Y-115253671D01*
X149547793Y-115253664D01*
X149461547Y-115138455D01*
X149461544Y-115138452D01*
X149346335Y-115052206D01*
X149346328Y-115052202D01*
X149211482Y-115001908D01*
X149211483Y-115001908D01*
X149151883Y-114995501D01*
X149151881Y-114995500D01*
X149151873Y-114995500D01*
X149151865Y-114995500D01*
X149027075Y-114995500D01*
X148960036Y-114975815D01*
X148914281Y-114923011D01*
X148904337Y-114853853D01*
X148933362Y-114790297D01*
X148970781Y-114761015D01*
X149031294Y-114730182D01*
X149031293Y-114730182D01*
X149031296Y-114730181D01*
X149184679Y-114618741D01*
X149318741Y-114484679D01*
X149430181Y-114331296D01*
X149516254Y-114162368D01*
X149574842Y-113982055D01*
X149592004Y-113873694D01*
X149604500Y-113794800D01*
X149604500Y-113605202D01*
X149602889Y-113595033D01*
X149598106Y-113564835D01*
X149607059Y-113495545D01*
X149632895Y-113457760D01*
X154469241Y-108621414D01*
X154495631Y-108607004D01*
X154520772Y-108590483D01*
X154525985Y-108590429D01*
X154530560Y-108587932D01*
X154560561Y-108590077D01*
X154590638Y-108589771D01*
X154597227Y-108592699D01*
X154600252Y-108592916D01*
X154622887Y-108604103D01*
X154698295Y-108651485D01*
X154705789Y-108656194D01*
X154727497Y-108673506D01*
X154826493Y-108772502D01*
X154843806Y-108794211D01*
X154918293Y-108912756D01*
X154930341Y-108937774D01*
X154976582Y-109069924D01*
X154982760Y-109096994D01*
X154998720Y-109238639D01*
X154999500Y-109252523D01*
X154999501Y-121239109D01*
X154999501Y-121299587D01*
X154999029Y-121310395D01*
X154985261Y-121467754D01*
X154981508Y-121489039D01*
X154942031Y-121636370D01*
X154934638Y-121656682D01*
X154870178Y-121794916D01*
X154859371Y-121813634D01*
X154771881Y-121938583D01*
X154757987Y-121955141D01*
X154650141Y-122062987D01*
X154633583Y-122076881D01*
X154508634Y-122164371D01*
X154489916Y-122175178D01*
X154351682Y-122239638D01*
X154331370Y-122247031D01*
X154184039Y-122286508D01*
X154162753Y-122290261D01*
X154005396Y-122304028D01*
X153994589Y-122304500D01*
X135505400Y-122304500D01*
X135494592Y-122304028D01*
X135337245Y-122290261D01*
X135315960Y-122286508D01*
X135168629Y-122247031D01*
X135148317Y-122239638D01*
X135010083Y-122175178D01*
X134991365Y-122164371D01*
X134866416Y-122076881D01*
X134849858Y-122062987D01*
X134742012Y-121955141D01*
X134728118Y-121938583D01*
X134640628Y-121813634D01*
X134629821Y-121794916D01*
X134565361Y-121656682D01*
X134557968Y-121636370D01*
X134518491Y-121489039D01*
X134514738Y-121467753D01*
X134500971Y-121310394D01*
X134500499Y-121299587D01*
X134500499Y-118362242D01*
X137135000Y-118362242D01*
X137135000Y-119075000D01*
X137900000Y-119075000D01*
X137900000Y-119325000D01*
X137135000Y-119325000D01*
X137135000Y-120037757D01*
X137162454Y-120211097D01*
X137216690Y-120378016D01*
X137296368Y-120534390D01*
X137399519Y-120676367D01*
X137399523Y-120676372D01*
X137523627Y-120800476D01*
X137523632Y-120800480D01*
X137665609Y-120903631D01*
X137821983Y-120983309D01*
X137988902Y-121037544D01*
X138125000Y-121059100D01*
X138125000Y-120278852D01*
X138203922Y-120300000D01*
X138296078Y-120300000D01*
X138375000Y-120278852D01*
X138375000Y-121059099D01*
X138511097Y-121037544D01*
X138678016Y-120983309D01*
X138834390Y-120903631D01*
X138976367Y-120800480D01*
X138976372Y-120800476D01*
X139100476Y-120676372D01*
X139100480Y-120676367D01*
X139203631Y-120534390D01*
X139283309Y-120378016D01*
X139337544Y-120211098D01*
X139358952Y-120075940D01*
X139365000Y-119909804D01*
X139365000Y-119875000D01*
X143140899Y-119875000D01*
X143921147Y-119875000D01*
X143900000Y-119953922D01*
X143900000Y-120046078D01*
X143921147Y-120125000D01*
X143140899Y-120125000D01*
X143162454Y-120261097D01*
X143216690Y-120428016D01*
X143296368Y-120584390D01*
X143399519Y-120726367D01*
X143399523Y-120726372D01*
X143523627Y-120850476D01*
X143523632Y-120850480D01*
X143665609Y-120953631D01*
X143821983Y-121033309D01*
X143988902Y-121087545D01*
X144162243Y-121115000D01*
X144875000Y-121115000D01*
X144875000Y-120350000D01*
X145125000Y-120350000D01*
X145125000Y-121115000D01*
X145837757Y-121115000D01*
X146011097Y-121087545D01*
X146178016Y-121033309D01*
X146334390Y-120953631D01*
X146476367Y-120850480D01*
X146476372Y-120850476D01*
X146600476Y-120726372D01*
X146600480Y-120726367D01*
X146703631Y-120584390D01*
X146783309Y-120428016D01*
X146837545Y-120261097D01*
X146859101Y-120125000D01*
X146078853Y-120125000D01*
X146100000Y-120046078D01*
X146100000Y-119953922D01*
X146078853Y-119875000D01*
X146859101Y-119875000D01*
X146837545Y-119738902D01*
X146783309Y-119571983D01*
X146703631Y-119415609D01*
X146653440Y-119346526D01*
X146653437Y-119346523D01*
X146600474Y-119273625D01*
X146476372Y-119149523D01*
X146476367Y-119149519D01*
X146334390Y-119046368D01*
X146178016Y-118966690D01*
X146011097Y-118912454D01*
X145837757Y-118885000D01*
X145125000Y-118885000D01*
X145125000Y-119650000D01*
X144875000Y-119650000D01*
X144875000Y-118885000D01*
X144162243Y-118885000D01*
X143988902Y-118912454D01*
X143821983Y-118966690D01*
X143665609Y-119046368D01*
X143523632Y-119149519D01*
X143523627Y-119149523D01*
X143399523Y-119273627D01*
X143399519Y-119273632D01*
X143296368Y-119415609D01*
X143216690Y-119571983D01*
X143162454Y-119738902D01*
X143140899Y-119875000D01*
X139365000Y-119875000D01*
X139365000Y-119325000D01*
X138600000Y-119325000D01*
X138600000Y-119075000D01*
X139365000Y-119075000D01*
X139365000Y-118362242D01*
X150635000Y-118362242D01*
X150635000Y-119075000D01*
X151400000Y-119075000D01*
X151400000Y-119325000D01*
X150635000Y-119325000D01*
X150635000Y-120037757D01*
X150662454Y-120211097D01*
X150716690Y-120378016D01*
X150796368Y-120534390D01*
X150899519Y-120676367D01*
X150899523Y-120676372D01*
X151023627Y-120800476D01*
X151023632Y-120800480D01*
X151165609Y-120903631D01*
X151321983Y-120983309D01*
X151488902Y-121037544D01*
X151625000Y-121059100D01*
X151625000Y-120278852D01*
X151703922Y-120300000D01*
X151796078Y-120300000D01*
X151875000Y-120278852D01*
X151875000Y-121059099D01*
X152011097Y-121037544D01*
X152178016Y-120983309D01*
X152334390Y-120903631D01*
X152476367Y-120800480D01*
X152476372Y-120800476D01*
X152600476Y-120676372D01*
X152600480Y-120676367D01*
X152703631Y-120534390D01*
X152783309Y-120378016D01*
X152837545Y-120211097D01*
X152865000Y-120037757D01*
X152865000Y-119325000D01*
X152100000Y-119325000D01*
X152100000Y-119075000D01*
X152865000Y-119075000D01*
X152865000Y-118362242D01*
X152837545Y-118188902D01*
X152783309Y-118021983D01*
X152703631Y-117865609D01*
X152600480Y-117723632D01*
X152600476Y-117723627D01*
X152476372Y-117599523D01*
X152476367Y-117599519D01*
X152334390Y-117496368D01*
X152178016Y-117416690D01*
X152011097Y-117362454D01*
X151875000Y-117340898D01*
X151875000Y-118121147D01*
X151796078Y-118100000D01*
X151703922Y-118100000D01*
X151625000Y-118121147D01*
X151625000Y-117340898D01*
X151488902Y-117362454D01*
X151321983Y-117416690D01*
X151165609Y-117496368D01*
X151023632Y-117599519D01*
X151023627Y-117599523D01*
X150899523Y-117723627D01*
X150899519Y-117723632D01*
X150796368Y-117865609D01*
X150716690Y-118021983D01*
X150662454Y-118188902D01*
X150635000Y-118362242D01*
X139365000Y-118362242D01*
X139337545Y-118188902D01*
X139283309Y-118021983D01*
X139203631Y-117865609D01*
X139100480Y-117723632D01*
X139100476Y-117723627D01*
X138976372Y-117599523D01*
X138976367Y-117599519D01*
X138834390Y-117496368D01*
X138678016Y-117416690D01*
X138511097Y-117362454D01*
X138375000Y-117340898D01*
X138375000Y-118121147D01*
X138296078Y-118100000D01*
X138203922Y-118100000D01*
X138125000Y-118121147D01*
X138125000Y-117340898D01*
X137988902Y-117362454D01*
X137821983Y-117416690D01*
X137665609Y-117496368D01*
X137523632Y-117599519D01*
X137523627Y-117599523D01*
X137399523Y-117723627D01*
X137399519Y-117723632D01*
X137296368Y-117865609D01*
X137216690Y-118021983D01*
X137162454Y-118188902D01*
X137135000Y-118362242D01*
X134500499Y-118362242D01*
X134500499Y-107150134D01*
X134520184Y-107083095D01*
X134572988Y-107037340D01*
X134642146Y-107027396D01*
X134671951Y-107035573D01*
X134762814Y-107073209D01*
X134766503Y-107074737D01*
X134921153Y-107105499D01*
X134921156Y-107105500D01*
X134921158Y-107105500D01*
X135078844Y-107105500D01*
X135078845Y-107105499D01*
X135233497Y-107074737D01*
X135379179Y-107014394D01*
X135510289Y-106926789D01*
X135621789Y-106815289D01*
X135709394Y-106684179D01*
X135732263Y-106628967D01*
X135776101Y-106574566D01*
X135842395Y-106552500D01*
X135910094Y-106569778D01*
X135934504Y-106588740D01*
X136863181Y-107517416D01*
X136896666Y-107578739D01*
X136899500Y-107605097D01*
X136899500Y-112013330D01*
X136899499Y-112013348D01*
X136899499Y-112179054D01*
X136899498Y-112179054D01*
X136940423Y-112331785D01*
X136969358Y-112381900D01*
X136969359Y-112381904D01*
X136969360Y-112381904D01*
X137019479Y-112468714D01*
X137019481Y-112468717D01*
X137138349Y-112587585D01*
X137138354Y-112587589D01*
X140386438Y-115835674D01*
X140419922Y-115896995D01*
X140421229Y-115942751D01*
X140395500Y-116105199D01*
X140395500Y-116294800D01*
X140425157Y-116482050D01*
X140425158Y-116482055D01*
X140464750Y-116603905D01*
X140483747Y-116662372D01*
X140569819Y-116831296D01*
X140681259Y-116984679D01*
X140815321Y-117118741D01*
X140968704Y-117230181D01*
X141048515Y-117270846D01*
X141137627Y-117316252D01*
X141137629Y-117316252D01*
X141137632Y-117316254D01*
X141317945Y-117374842D01*
X141411574Y-117389671D01*
X141505200Y-117404500D01*
X141505204Y-117404500D01*
X141694800Y-117404500D01*
X141778022Y-117391318D01*
X141882055Y-117374842D01*
X142062368Y-117316254D01*
X142231296Y-117230181D01*
X142384679Y-117118741D01*
X142518741Y-116984679D01*
X142630181Y-116831296D01*
X142716254Y-116662368D01*
X142774842Y-116482055D01*
X142791318Y-116378022D01*
X142804500Y-116294800D01*
X142804500Y-116105199D01*
X142788023Y-116001171D01*
X142774842Y-115917945D01*
X142716254Y-115737632D01*
X142716252Y-115737629D01*
X142716252Y-115737627D01*
X142630180Y-115568703D01*
X142518741Y-115415321D01*
X142384679Y-115281259D01*
X142231296Y-115169819D01*
X142169735Y-115138452D01*
X142062372Y-115083747D01*
X142044569Y-115077962D01*
X142012882Y-115067666D01*
X141955209Y-115028230D01*
X141928011Y-114963871D01*
X141939926Y-114895025D01*
X141987170Y-114843549D01*
X142012885Y-114831806D01*
X142062178Y-114815789D01*
X142231026Y-114729756D01*
X142231032Y-114729752D01*
X142359580Y-114636356D01*
X142359581Y-114636356D01*
X141817351Y-114094127D01*
X141876306Y-114060090D01*
X141960090Y-113976306D01*
X141994127Y-113917351D01*
X142536356Y-114459581D01*
X142536356Y-114459580D01*
X142629752Y-114331032D01*
X142629756Y-114331026D01*
X142715789Y-114162178D01*
X142774354Y-113981937D01*
X142804000Y-113794762D01*
X142804000Y-113605237D01*
X142774354Y-113418062D01*
X142715789Y-113237821D01*
X142629752Y-113068965D01*
X142536356Y-112940418D01*
X142536356Y-112940417D01*
X141994126Y-113482647D01*
X141960090Y-113423694D01*
X141876306Y-113339910D01*
X141817350Y-113305871D01*
X142359581Y-112763642D01*
X142231034Y-112670247D01*
X142062178Y-112584210D01*
X141881937Y-112525645D01*
X141694762Y-112496000D01*
X141505238Y-112496000D01*
X141318062Y-112525645D01*
X141137821Y-112584210D01*
X140968962Y-112670249D01*
X140840418Y-112763641D01*
X140840417Y-112763642D01*
X141382648Y-113305872D01*
X141323694Y-113339910D01*
X141239910Y-113423694D01*
X141205872Y-113482648D01*
X140663642Y-112940417D01*
X140663641Y-112940418D01*
X140570249Y-113068962D01*
X140484210Y-113237821D01*
X140425645Y-113418062D01*
X140396000Y-113605237D01*
X140396000Y-113794762D01*
X140402543Y-113836074D01*
X140393588Y-113905368D01*
X140348592Y-113958820D01*
X140281840Y-113979459D01*
X140214527Y-113960734D01*
X140192389Y-113943153D01*
X138136819Y-111887583D01*
X138103334Y-111826260D01*
X138100500Y-111799902D01*
X138100500Y-107394060D01*
X138100501Y-107394047D01*
X138100501Y-107225944D01*
X138100501Y-107225943D01*
X138059577Y-107073216D01*
X138025618Y-107014397D01*
X137980524Y-106936290D01*
X137980518Y-106936282D01*
X136637963Y-105593727D01*
X136604478Y-105532404D01*
X136609462Y-105462712D01*
X136651334Y-105406779D01*
X136716798Y-105382362D01*
X136763963Y-105388115D01*
X136780465Y-105393477D01*
X136864450Y-105406779D01*
X136982648Y-105425500D01*
X136982649Y-105425500D01*
X137187351Y-105425500D01*
X137187352Y-105425500D01*
X137389534Y-105393477D01*
X137584219Y-105330220D01*
X137766610Y-105237287D01*
X137899932Y-105140424D01*
X137932213Y-105116971D01*
X137932215Y-105116968D01*
X137932219Y-105116966D01*
X138076966Y-104972219D01*
X138076968Y-104972215D01*
X138076971Y-104972213D01*
X138129732Y-104899590D01*
X138197287Y-104806610D01*
X138290220Y-104624219D01*
X138353477Y-104429534D01*
X138385500Y-104227352D01*
X138385500Y-104022648D01*
X138353477Y-103820466D01*
X138353475Y-103820461D01*
X138353475Y-103820458D01*
X138352880Y-103818626D01*
X138352858Y-103817889D01*
X138352338Y-103815719D01*
X138352793Y-103815609D01*
X138350883Y-103748785D01*
X138386962Y-103688952D01*
X138449663Y-103658123D01*
X138519077Y-103666086D01*
X138558491Y-103692625D01*
X138678143Y-103812277D01*
X138678150Y-103812283D01*
X138826302Y-103925964D01*
X138886197Y-103971923D01*
X138886204Y-103971927D01*
X139113295Y-104103039D01*
X139113300Y-104103041D01*
X139113303Y-104103043D01*
X139355581Y-104203398D01*
X139608884Y-104271270D01*
X139868880Y-104305500D01*
X139868887Y-104305500D01*
X148381113Y-104305500D01*
X148381120Y-104305500D01*
X148641116Y-104271270D01*
X148894419Y-104203398D01*
X149136697Y-104103043D01*
X149363803Y-103971923D01*
X149571851Y-103812282D01*
X149757282Y-103626851D01*
X149916923Y-103418803D01*
X150048043Y-103191697D01*
X150148398Y-102949419D01*
X150216270Y-102696116D01*
X150250500Y-102436120D01*
X150250500Y-102305000D01*
X150250500Y-102239108D01*
X150250500Y-87310413D01*
X150250972Y-87299606D01*
X150258170Y-87217331D01*
X150264739Y-87142240D01*
X150268490Y-87120966D01*
X150307969Y-86973627D01*
X150315362Y-86953318D01*
X150379823Y-86815081D01*
X150390629Y-86796366D01*
X150478119Y-86671417D01*
X150492007Y-86654865D01*
X150599868Y-86547004D01*
X150616414Y-86533120D01*
X150631695Y-86522420D01*
X150697902Y-86500097D01*
X150702813Y-86500000D01*
X151736936Y-86500000D01*
X151746664Y-86500381D01*
G37*
%TD.AperFunction*%
%TA.AperFunction,Conductor*%
G36*
X153325084Y-92253308D02*
G01*
X153366270Y-92250067D01*
X153434648Y-92264431D01*
X153484405Y-92313482D01*
X153500000Y-92373685D01*
X153500000Y-93006453D01*
X153480315Y-93073492D01*
X153427511Y-93119247D01*
X153358353Y-93129191D01*
X153294797Y-93100166D01*
X153288319Y-93094134D01*
X153167213Y-92973028D01*
X153001611Y-92852713D01*
X152908369Y-92805203D01*
X152857574Y-92757229D01*
X152840779Y-92689407D01*
X152863317Y-92623273D01*
X152908371Y-92584234D01*
X153001347Y-92536861D01*
X153148308Y-92430085D01*
X153148309Y-92430084D01*
X152500749Y-91782524D01*
X152565606Y-91745080D01*
X152640080Y-91670606D01*
X152677525Y-91605749D01*
X153325084Y-92253308D01*
G37*
%TD.AperFunction*%
%TA.AperFunction,Conductor*%
G36*
X153326238Y-89792214D02*
G01*
X153352597Y-89794100D01*
X153361650Y-89799918D01*
X153368691Y-89801450D01*
X153396945Y-89822601D01*
X153463681Y-89889337D01*
X153497166Y-89950660D01*
X153500000Y-89977018D01*
X153500000Y-90476313D01*
X153480315Y-90543352D01*
X153427511Y-90589107D01*
X153366272Y-90599931D01*
X153325085Y-90596689D01*
X152677524Y-91244250D01*
X152640080Y-91179394D01*
X152565606Y-91104920D01*
X152500748Y-91067474D01*
X153148309Y-90419914D01*
X153148308Y-90419913D01*
X153001349Y-90313140D01*
X152908370Y-90265765D01*
X152857574Y-90217790D01*
X152840779Y-90149969D01*
X152863316Y-90083835D01*
X152908370Y-90044795D01*
X152908920Y-90044515D01*
X153001610Y-89997287D01*
X153150192Y-89889337D01*
X153167213Y-89876971D01*
X153167214Y-89876969D01*
X153167219Y-89876966D01*
X153221583Y-89822601D01*
X153229528Y-89818262D01*
X153234954Y-89811015D01*
X153259712Y-89801780D01*
X153282905Y-89789116D01*
X153291935Y-89789761D01*
X153300418Y-89786598D01*
X153326238Y-89792214D01*
G37*
%TD.AperFunction*%
%TD*%
M02*
