M48
; DRILL file KiCad 10.0.4 date 2026-07-16T11:06:00
; FORMAT={-:-/ absolute / metric / decimal}
; #@! TF.CreationDate,2026-07-16T11:06:00-07:00
; #@! TF.GenerationSoftware,Kicad,Pcbnew,10.0.4
; #@! TF.FileFunction,MixedPlating,1,2
FMAT,2
METRIC
; #@! TA.AperFunction,Plated,PTH,ViaDrill
T1C0.300
; #@! TA.AperFunction,Plated,PTH,ComponentDrill
T2C0.700
; #@! TA.AperFunction,Plated,PTH,ComponentDrill
T3C0.800
; #@! TA.AperFunction,Plated,PTH,ComponentDrill
T4C0.900
%
G90
G05
T1
X135.0Y-106.305
X141.0Y-110.805
X149.0Y-110.805
X154.0Y-107.0
T3
X137.085Y-88.885
X137.085Y-91.425
X137.085Y-93.965
X137.085Y-96.505
X137.085Y-99.045
X137.085Y-101.585
X137.085Y-104.125
X152.32Y-88.885
X152.32Y-91.425
X152.32Y-93.965
X152.32Y-96.505
X152.32Y-99.045
X152.32Y-101.585
X152.32Y-104.125
T4
X141.6Y-113.7
X141.6Y-116.2
X148.4Y-113.7
X148.4Y-116.2
T2
X138.25Y-118.45G85X138.25Y-119.95
G05
X144.25Y-120.0G85X145.75Y-120.0
G05
X151.75Y-118.45G85X151.75Y-119.95
G05
M30
