%TF.GenerationSoftware,KiCad,Pcbnew,10.0.4*%
%TF.CreationDate,2026-07-16T11:05:54-07:00*%
%TF.ProjectId,adbee,61646265-652e-46b6-9963-61645f706362,v0.1.0*%
%TF.SameCoordinates,Original*%
%TF.FileFunction,Legend,Bot*%
%TF.FilePolarity,Positive*%
%FSLAX46Y46*%
G04 Gerber Fmt 4.6, Leading zero omitted, Abs format (unit mm)*
G04 Created by KiCad (PCBNEW 10.0.4) date 2026-07-16 11:05:54*
%MOMM*%
%LPD*%
G01*
G04 APERTURE LIST*
%ADD10C,0.000000*%
G04 APERTURE END LIST*
D10*
%TO.C,G\u002A\u002A\u002A*%
G36*
X149970072Y-108632892D02*
G01*
X149973631Y-108864242D01*
X149978605Y-109074674D01*
X149984991Y-109256948D01*
X149992782Y-109403825D01*
X150001976Y-109508067D01*
X150012567Y-109562434D01*
X150016045Y-109570400D01*
X150092627Y-109673125D01*
X150211911Y-109749682D01*
X150363356Y-109793138D01*
X150382770Y-109796147D01*
X150463026Y-109812642D01*
X150486265Y-109827217D01*
X150452567Y-109839864D01*
X150362011Y-109850571D01*
X150214678Y-109859328D01*
X150010648Y-109866126D01*
X149750000Y-109870954D01*
X149714968Y-109871414D01*
X149425728Y-109874567D01*
X149186175Y-109875585D01*
X148989616Y-109874087D01*
X148829357Y-109869695D01*
X148698702Y-109862029D01*
X148590957Y-109850712D01*
X148499427Y-109835365D01*
X148417419Y-109815607D01*
X148338236Y-109791062D01*
X148309847Y-109781241D01*
X148062418Y-109672731D01*
X147844960Y-109529483D01*
X147640261Y-109340381D01*
X147453733Y-109106332D01*
X147308743Y-108840029D01*
X147214385Y-108556250D01*
X147171529Y-108261134D01*
X147176024Y-108119285D01*
X147824832Y-108119285D01*
X147838859Y-108446823D01*
X147882047Y-108754886D01*
X147952745Y-109029523D01*
X148049280Y-109266652D01*
X148169981Y-109462190D01*
X148313175Y-109612054D01*
X148477190Y-109712162D01*
X148616132Y-109758131D01*
X148807612Y-109787017D01*
X148997052Y-109781534D01*
X149169374Y-109742435D01*
X149309501Y-109670476D01*
X149387931Y-109597706D01*
X149482407Y-109463682D01*
X149544174Y-109314396D01*
X149546383Y-109304236D01*
X149554180Y-109228546D01*
X149560199Y-109099089D01*
X149564391Y-108918551D01*
X149566711Y-108689615D01*
X149567110Y-108414964D01*
X149565542Y-108097283D01*
X149564632Y-107979006D01*
X149562429Y-107718966D01*
X149560079Y-107507865D01*
X149557245Y-107339832D01*
X149553591Y-107208997D01*
X149548782Y-107109490D01*
X149542481Y-107035442D01*
X149534353Y-106980981D01*
X149524060Y-106940239D01*
X149511267Y-106907344D01*
X149495638Y-106876428D01*
X149457925Y-106812156D01*
X149351891Y-106683988D01*
X149222088Y-106598318D01*
X149060009Y-106550613D01*
X148857143Y-106536341D01*
X148749202Y-106540081D01*
X148549840Y-106571873D01*
X148384229Y-106640426D01*
X148241833Y-106751009D01*
X148112116Y-106908890D01*
X148060377Y-106990126D01*
X147956007Y-107212736D01*
X147882642Y-107472257D01*
X147839258Y-107773002D01*
X147824832Y-108119285D01*
X147176024Y-108119285D01*
X147181046Y-107960824D01*
X147243808Y-107661459D01*
X147360685Y-107369183D01*
X147394354Y-107307064D01*
X147535181Y-107104744D01*
X147712326Y-106913263D01*
X147910468Y-106747783D01*
X148114286Y-106623464D01*
X148181886Y-106591109D01*
X148279631Y-106548624D01*
X148374897Y-106514954D01*
X148475134Y-106489254D01*
X148587787Y-106470678D01*
X148720307Y-106458383D01*
X148880140Y-106451521D01*
X149074735Y-106449249D01*
X149311540Y-106450720D01*
X149598003Y-106455090D01*
X149704244Y-106457113D01*
X149914436Y-106462034D01*
X150101799Y-106467642D01*
X150259470Y-106473656D01*
X150380587Y-106479798D01*
X150458289Y-106485786D01*
X150485715Y-106491340D01*
X150476834Y-106499721D01*
X150426313Y-106516036D01*
X150345988Y-106530459D01*
X150209289Y-106567081D01*
X150089721Y-106647217D01*
X150010824Y-106766021D01*
X150002484Y-106803880D01*
X149993100Y-106897733D01*
X149985173Y-107035820D01*
X149978697Y-107210902D01*
X149973668Y-107415740D01*
X149970082Y-107643094D01*
X149967934Y-107885725D01*
X149967219Y-108136395D01*
X149967933Y-108387864D01*
X149968170Y-108414964D01*
X149970072Y-108632892D01*
G37*
G36*
X137329213Y-106255091D02*
G01*
X137354319Y-106284127D01*
X137399950Y-106354722D01*
X137461665Y-106458586D01*
X137535021Y-106587430D01*
X137615578Y-106732965D01*
X137698893Y-106886901D01*
X137780524Y-107040949D01*
X137856030Y-107186820D01*
X137920969Y-107316225D01*
X137970898Y-107420875D01*
X138001377Y-107492480D01*
X138007963Y-107522751D01*
X137982288Y-107512805D01*
X137922314Y-107465781D01*
X137833495Y-107385869D01*
X137720940Y-107277675D01*
X137589760Y-107145803D01*
X137452162Y-107006347D01*
X137334408Y-106891532D01*
X137239658Y-106806008D01*
X137159953Y-106743032D01*
X137087334Y-106695857D01*
X137013841Y-106657739D01*
X136994786Y-106649036D01*
X136764786Y-106572444D01*
X136496618Y-106531392D01*
X136186529Y-106525280D01*
X135939610Y-106533571D01*
X136455520Y-107365319D01*
X136971429Y-108197068D01*
X136971429Y-108574148D01*
X136970072Y-108714026D01*
X136964775Y-108840490D01*
X136955644Y-108914423D01*
X136942858Y-108933570D01*
X136925943Y-108910955D01*
X136914127Y-108853313D01*
X136908420Y-108782227D01*
X136861619Y-108630842D01*
X136775922Y-108494589D01*
X136661350Y-108387244D01*
X136527928Y-108322581D01*
X136498262Y-108316021D01*
X136399599Y-108303185D01*
X136272765Y-108294260D01*
X136137779Y-108290873D01*
X135861272Y-108290713D01*
X135875811Y-108454999D01*
X135902108Y-108643220D01*
X135950641Y-108862451D01*
X136013772Y-109074802D01*
X136084935Y-109255153D01*
X136141185Y-109365976D01*
X136259363Y-109543188D01*
X136396690Y-109678271D01*
X136561981Y-109780941D01*
X136598884Y-109798832D01*
X136689288Y-109837455D01*
X136770655Y-109859132D01*
X136865012Y-109868388D01*
X136994385Y-109869747D01*
X137110532Y-109865236D01*
X137326934Y-109830138D01*
X137515294Y-109756753D01*
X137688753Y-109640749D01*
X137690264Y-109639509D01*
X137745896Y-109588708D01*
X137833393Y-109502751D01*
X137946248Y-109388305D01*
X138077954Y-109252038D01*
X138222004Y-109100619D01*
X138371892Y-108940713D01*
X138395793Y-108915062D01*
X138538192Y-108763916D01*
X138668549Y-108628321D01*
X138781556Y-108513598D01*
X138871905Y-108425066D01*
X138934288Y-108368045D01*
X138963398Y-108347856D01*
X138980294Y-108350201D01*
X138992111Y-108369285D01*
X138978981Y-108393762D01*
X138941449Y-108463525D01*
X138882790Y-108572482D01*
X138806145Y-108714799D01*
X138714657Y-108884642D01*
X138611467Y-109076177D01*
X138499718Y-109283571D01*
X138397129Y-109472951D01*
X138292308Y-109664266D01*
X138198332Y-109833518D01*
X138118408Y-109975032D01*
X138055741Y-110083137D01*
X138013539Y-110152159D01*
X137995008Y-110176428D01*
X137979726Y-110159776D01*
X137971429Y-110107040D01*
X137970342Y-110074091D01*
X137960835Y-110030256D01*
X137935712Y-109997885D01*
X137888053Y-109975246D01*
X137810940Y-109960606D01*
X137697452Y-109952234D01*
X137540669Y-109948396D01*
X137333674Y-109947360D01*
X137163037Y-109946197D01*
X136934408Y-109939576D01*
X136745849Y-109925648D01*
X136587029Y-109902761D01*
X136447621Y-109869263D01*
X136317292Y-109823503D01*
X136185715Y-109763829D01*
X136017423Y-109669317D01*
X135766429Y-109477293D01*
X135554934Y-109244607D01*
X135385667Y-108973954D01*
X135320987Y-108831618D01*
X135257462Y-108651359D01*
X135215288Y-108480188D01*
X135200000Y-108337088D01*
X135200000Y-108234569D01*
X135897015Y-108226927D01*
X136594030Y-108219285D01*
X136066447Y-107490713D01*
X136010562Y-107413724D01*
X135878548Y-107233325D01*
X135755113Y-107066616D01*
X135645198Y-106920149D01*
X135553742Y-106800476D01*
X135485685Y-106714151D01*
X135445968Y-106667726D01*
X135383492Y-106613854D01*
X135296970Y-106570237D01*
X135176537Y-106539760D01*
X135092688Y-106521164D01*
X135025688Y-106500468D01*
X135000000Y-106484176D01*
X135001696Y-106482956D01*
X135042291Y-106478164D01*
X135132393Y-106473776D01*
X135265867Y-106469912D01*
X135436579Y-106466695D01*
X135638392Y-106464247D01*
X135865173Y-106462688D01*
X136110788Y-106462142D01*
X136197807Y-106462146D01*
X136470168Y-106462043D01*
X136692136Y-106461275D01*
X136868972Y-106459204D01*
X137005936Y-106455194D01*
X137108288Y-106448607D01*
X137181288Y-106438805D01*
X137230196Y-106425153D01*
X137260274Y-106407011D01*
X137276780Y-106383744D01*
X137284975Y-106354715D01*
X137290120Y-106319285D01*
X137303918Y-106273667D01*
X137328572Y-106254878D01*
X137329213Y-106255091D01*
G37*
G36*
X140792250Y-106258524D02*
G01*
X140800000Y-106318280D01*
X140809434Y-106377188D01*
X140855265Y-106432565D01*
X140862663Y-106435157D01*
X140924030Y-106443157D01*
X141039581Y-106449835D01*
X141207042Y-106455131D01*
X141424136Y-106458987D01*
X141688588Y-106461343D01*
X141998122Y-106462142D01*
X142197223Y-106462456D01*
X142484505Y-106464395D01*
X142715465Y-106468136D01*
X142890601Y-106473714D01*
X143010408Y-106481165D01*
X143075385Y-106490525D01*
X143086028Y-106501830D01*
X143042834Y-106515115D01*
X142946300Y-106530417D01*
X142908932Y-106536966D01*
X142800687Y-106569343D01*
X142712498Y-106612669D01*
X142688442Y-106635911D01*
X142632712Y-106700657D01*
X142553259Y-106798813D01*
X142454982Y-106923836D01*
X142342780Y-107069182D01*
X142221553Y-107228307D01*
X142096202Y-107394669D01*
X141971626Y-107561722D01*
X141852724Y-107722925D01*
X141744397Y-107871732D01*
X141651544Y-108001601D01*
X141579065Y-108105988D01*
X141531859Y-108178350D01*
X141514828Y-108212142D01*
X141530524Y-108216663D01*
X141595779Y-108222121D01*
X141704625Y-108226776D01*
X141849349Y-108230394D01*
X142022239Y-108232737D01*
X142215581Y-108233571D01*
X142916876Y-108233571D01*
X142899573Y-108340713D01*
X142886709Y-108416231D01*
X142834722Y-108651039D01*
X142766926Y-108851804D01*
X142676450Y-109036173D01*
X142556418Y-109221793D01*
X142361451Y-109447742D01*
X142123953Y-109638837D01*
X141851535Y-109788328D01*
X141549531Y-109892660D01*
X141474958Y-109909976D01*
X141382643Y-109925687D01*
X141277087Y-109936553D01*
X141147322Y-109943351D01*
X140982378Y-109946860D01*
X140771287Y-109947856D01*
X140750952Y-109947858D01*
X140562051Y-109948301D01*
X140421417Y-109950029D01*
X140320932Y-109953785D01*
X140252476Y-109960311D01*
X140207932Y-109970349D01*
X140179182Y-109984643D01*
X140158106Y-110003935D01*
X140128641Y-110051042D01*
X140123138Y-110101142D01*
X140128378Y-110121325D01*
X140121841Y-110159349D01*
X140121445Y-110159741D01*
X140088096Y-110176005D01*
X140087915Y-110175988D01*
X140080106Y-110168196D01*
X140063921Y-110143913D01*
X140037497Y-110099755D01*
X139998968Y-110032334D01*
X139946469Y-109938266D01*
X139878136Y-109814163D01*
X139792104Y-109656640D01*
X139686508Y-109462312D01*
X139559483Y-109227792D01*
X139409165Y-108949694D01*
X139233689Y-108624633D01*
X139225090Y-108608653D01*
X139161060Y-108485175D01*
X139125076Y-108404671D01*
X139115215Y-108362123D01*
X139129559Y-108352514D01*
X139136262Y-108355922D01*
X139179628Y-108391939D01*
X139254775Y-108462798D01*
X139356463Y-108563269D01*
X139479454Y-108688124D01*
X139618509Y-108832135D01*
X139768388Y-108990073D01*
X139810452Y-109034668D01*
X139962946Y-109194641D01*
X140106575Y-109342803D01*
X140235343Y-109473135D01*
X140343254Y-109579617D01*
X140424311Y-109656230D01*
X140472518Y-109696955D01*
X140610104Y-109772921D01*
X140811393Y-109838046D01*
X141030788Y-109868886D01*
X141251559Y-109863360D01*
X141456981Y-109819388D01*
X141547903Y-109781214D01*
X141712017Y-109667864D01*
X141858600Y-109506493D01*
X141984839Y-109302087D01*
X142087917Y-109059627D01*
X142165020Y-108784099D01*
X142213332Y-108480484D01*
X142233781Y-108284541D01*
X141893358Y-108294770D01*
X141824473Y-108296971D01*
X141696921Y-108302893D01*
X141607478Y-108311932D01*
X141542781Y-108326673D01*
X141489468Y-108349701D01*
X141434175Y-108383602D01*
X141319752Y-108487762D01*
X141230034Y-108638442D01*
X141181297Y-108819193D01*
X141178147Y-108841133D01*
X141162098Y-108921479D01*
X141147103Y-108948237D01*
X141133992Y-108924388D01*
X141123599Y-108852912D01*
X141116753Y-108736788D01*
X141114286Y-108578996D01*
X141114286Y-108210136D01*
X141628572Y-107379573D01*
X141724323Y-107224677D01*
X141837797Y-107040386D01*
X141938395Y-106876194D01*
X142022659Y-106737789D01*
X142087130Y-106630856D01*
X142128349Y-106561080D01*
X142142858Y-106534148D01*
X142139232Y-106530782D01*
X142095311Y-106523893D01*
X142011530Y-106520395D01*
X141900495Y-106520073D01*
X141774813Y-106522710D01*
X141647091Y-106528092D01*
X141529936Y-106536002D01*
X141435954Y-106546227D01*
X141410275Y-106550087D01*
X141286411Y-106574544D01*
X141174937Y-106609925D01*
X141067506Y-106661568D01*
X140955770Y-106734811D01*
X140831384Y-106834991D01*
X140686000Y-106967445D01*
X140511271Y-107137510D01*
X140474043Y-107174279D01*
X140351357Y-107293063D01*
X140244090Y-107393329D01*
X140158419Y-107469535D01*
X140100519Y-107516139D01*
X140076567Y-107527598D01*
X140076162Y-107525108D01*
X140089764Y-107485066D01*
X140126259Y-107405257D01*
X140181207Y-107293924D01*
X140250169Y-107159312D01*
X140328704Y-107009664D01*
X140412373Y-106853223D01*
X140496735Y-106698233D01*
X140577350Y-106552937D01*
X140649778Y-106425580D01*
X140709580Y-106324404D01*
X140752314Y-106257653D01*
X140773542Y-106233571D01*
X140773608Y-106233571D01*
X140792250Y-106258524D01*
G37*
G36*
X154458433Y-109534290D02*
G01*
X154527453Y-109620451D01*
X154568518Y-109666751D01*
X154646817Y-109731905D01*
X154728825Y-109770427D01*
X154839035Y-109791472D01*
X154907533Y-109802448D01*
X154974214Y-109819959D01*
X155000000Y-109836863D01*
X154999914Y-109837245D01*
X154969582Y-109843904D01*
X154889574Y-109849863D01*
X154766965Y-109854893D01*
X154608830Y-109858769D01*
X154422246Y-109861261D01*
X154214286Y-109862142D01*
X154060833Y-109861764D01*
X153843697Y-109859615D01*
X153667974Y-109855687D01*
X153537592Y-109850118D01*
X153456482Y-109843045D01*
X153428572Y-109834605D01*
X153438415Y-109826997D01*
X153493381Y-109814944D01*
X153585980Y-109805048D01*
X153704018Y-109798891D01*
X153979463Y-109790713D01*
X153039732Y-109413982D01*
X153015209Y-109404153D01*
X152768974Y-109305796D01*
X152569776Y-109227140D01*
X152412265Y-109166366D01*
X152291087Y-109121658D01*
X152200889Y-109091198D01*
X152136320Y-109073169D01*
X152092027Y-109065752D01*
X152062657Y-109067132D01*
X152042858Y-109075490D01*
X152027102Y-109088732D01*
X151993460Y-109159867D01*
X151991944Y-109259369D01*
X152019873Y-109374494D01*
X152074566Y-109492498D01*
X152153343Y-109600637D01*
X152233218Y-109672228D01*
X152352442Y-109735379D01*
X152505810Y-109775864D01*
X152703795Y-109797427D01*
X152770662Y-109802192D01*
X152873877Y-109813166D01*
X152944960Y-109825652D01*
X152971429Y-109837768D01*
X152956831Y-109842008D01*
X152892066Y-109847459D01*
X152781559Y-109852296D01*
X152631918Y-109856351D01*
X152449754Y-109859456D01*
X152241673Y-109861442D01*
X152014286Y-109862142D01*
X151886152Y-109861941D01*
X151655936Y-109860456D01*
X151455149Y-109857652D01*
X151289335Y-109853680D01*
X151164034Y-109848690D01*
X151084790Y-109842830D01*
X151057143Y-109836252D01*
X151066745Y-109825606D01*
X151118275Y-109806611D01*
X151199462Y-109790787D01*
X151313627Y-109763539D01*
X151440315Y-109690355D01*
X151529143Y-109575324D01*
X151530034Y-109573426D01*
X151540958Y-109519235D01*
X151550418Y-109415568D01*
X151558414Y-109269531D01*
X151564946Y-109088232D01*
X151570014Y-108878776D01*
X151573618Y-108648270D01*
X151575759Y-108403821D01*
X151576435Y-108152537D01*
X151575743Y-107932199D01*
X151970966Y-107932199D01*
X151972873Y-108117723D01*
X151977032Y-108288980D01*
X151983472Y-108436129D01*
X151992226Y-108549328D01*
X152003323Y-108618735D01*
X152073991Y-108783184D01*
X152188486Y-108930629D01*
X152332915Y-109039355D01*
X152346708Y-109046534D01*
X152427701Y-109084618D01*
X152548830Y-109137931D01*
X152699823Y-109202092D01*
X152870404Y-109272716D01*
X153050301Y-109345420D01*
X153121291Y-109373684D01*
X153285385Y-109438488D01*
X153428392Y-109494233D01*
X153542333Y-109537851D01*
X153619225Y-109566272D01*
X153651087Y-109576428D01*
X153666785Y-109574151D01*
X153725573Y-109540738D01*
X153777589Y-109484902D01*
X153800000Y-109429213D01*
X153790739Y-109402393D01*
X153753968Y-109329912D01*
X153692562Y-109219875D01*
X153610122Y-109078055D01*
X153510251Y-108910220D01*
X153396551Y-108722141D01*
X153272623Y-108519589D01*
X153142070Y-108308334D01*
X153008495Y-108094147D01*
X152875499Y-107882798D01*
X152746684Y-107680057D01*
X152625652Y-107491695D01*
X152516007Y-107323483D01*
X152421349Y-107181190D01*
X152345281Y-107070588D01*
X152291405Y-106997446D01*
X152263324Y-106967536D01*
X152254960Y-106964014D01*
X152161876Y-106955025D01*
X152072369Y-106990591D01*
X152008172Y-107062616D01*
X152005089Y-107070621D01*
X151994131Y-107135060D01*
X151985240Y-107244284D01*
X151978448Y-107388452D01*
X151973784Y-107557722D01*
X151971280Y-107742251D01*
X151970966Y-107932199D01*
X151575743Y-107932199D01*
X151575647Y-107901522D01*
X151573395Y-107657885D01*
X151569680Y-107428732D01*
X151564500Y-107221170D01*
X151557857Y-107042305D01*
X151549749Y-106899244D01*
X151540178Y-106799093D01*
X151529143Y-106748960D01*
X151469769Y-106662792D01*
X151354202Y-106577650D01*
X151199462Y-106533496D01*
X151148202Y-106524700D01*
X151082745Y-106506323D01*
X151057143Y-106488032D01*
X151064584Y-106484566D01*
X151119476Y-106478339D01*
X151223114Y-106472908D01*
X151369956Y-106468423D01*
X151554460Y-106465033D01*
X151771084Y-106462890D01*
X152014286Y-106462142D01*
X152291117Y-106462919D01*
X152531709Y-106465354D01*
X152721656Y-106469399D01*
X152859339Y-106475006D01*
X152943136Y-106482127D01*
X152971429Y-106490713D01*
X152946099Y-106505175D01*
X152876398Y-106515442D01*
X152775282Y-106519285D01*
X152773768Y-106519286D01*
X152618353Y-106532538D01*
X152508345Y-106570814D01*
X152446399Y-106632577D01*
X152435171Y-106716288D01*
X152440785Y-106729612D01*
X152475659Y-106787719D01*
X152539217Y-106884298D01*
X152627918Y-107014453D01*
X152738223Y-107173287D01*
X152866592Y-107355906D01*
X153009484Y-107557414D01*
X153163360Y-107772914D01*
X153324680Y-107997511D01*
X153489904Y-108226309D01*
X153655492Y-108454413D01*
X153817904Y-108676927D01*
X153973601Y-108888955D01*
X154119042Y-109085600D01*
X154250688Y-109261969D01*
X154364998Y-109413164D01*
X154377378Y-109429213D01*
X154458433Y-109534290D01*
G37*
G36*
X146229987Y-107445508D02*
G01*
X146226383Y-107676014D01*
X146224242Y-107920463D01*
X146223566Y-108171747D01*
X146224354Y-108422762D01*
X146226154Y-108617525D01*
X146226606Y-108666398D01*
X146230321Y-108895552D01*
X146235501Y-109103114D01*
X146242144Y-109281979D01*
X146250252Y-109425040D01*
X146259823Y-109525191D01*
X146270858Y-109575324D01*
X146330539Y-109661600D01*
X146448463Y-109749097D01*
X146603130Y-109793825D01*
X146651978Y-109801884D01*
X146717273Y-109819545D01*
X146742858Y-109837251D01*
X146742816Y-109837427D01*
X146712933Y-109841906D01*
X146630774Y-109846107D01*
X146501028Y-109849962D01*
X146328382Y-109853407D01*
X146117523Y-109856375D01*
X145873139Y-109858798D01*
X145599918Y-109860612D01*
X145302547Y-109861748D01*
X144985715Y-109862142D01*
X144677997Y-109861783D01*
X144374572Y-109860666D01*
X144097189Y-109858855D01*
X143850290Y-109856413D01*
X143638319Y-109853403D01*
X143465719Y-109849889D01*
X143336933Y-109845936D01*
X143256403Y-109841605D01*
X143228572Y-109836962D01*
X143234857Y-109827606D01*
X143280801Y-109803556D01*
X143356677Y-109779525D01*
X143405015Y-109765511D01*
X143469661Y-109734303D01*
X143518215Y-109685200D01*
X143556528Y-109608506D01*
X143590453Y-109494528D01*
X143625838Y-109333571D01*
X143643634Y-109263963D01*
X144071429Y-109263963D01*
X144071430Y-109267992D01*
X144074022Y-109383898D01*
X144084657Y-109462216D01*
X144107919Y-109521868D01*
X144148388Y-109581774D01*
X144161691Y-109598120D01*
X144244455Y-109676455D01*
X144334102Y-109735386D01*
X144368500Y-109750053D01*
X144437457Y-109769194D01*
X144529576Y-109782336D01*
X144656176Y-109790871D01*
X144828572Y-109796190D01*
X144861139Y-109796795D01*
X145090884Y-109794794D01*
X145273720Y-109778894D01*
X145417781Y-109746566D01*
X145531201Y-109695283D01*
X145622113Y-109622514D01*
X145698651Y-109525734D01*
X145711001Y-109505717D01*
X145762265Y-109399261D01*
X145797899Y-109290713D01*
X145807902Y-109223041D01*
X145816834Y-109105318D01*
X145823016Y-108956789D01*
X145826418Y-108790007D01*
X145827010Y-108617525D01*
X145824763Y-108451897D01*
X145819645Y-108305675D01*
X145811629Y-108191413D01*
X145800683Y-108121664D01*
X145761731Y-108025728D01*
X145684418Y-107936079D01*
X145573892Y-107886443D01*
X145426291Y-107875310D01*
X145237756Y-107901166D01*
X145012278Y-107967857D01*
X144768722Y-108093325D01*
X144553067Y-108268384D01*
X144365830Y-108492601D01*
X144207526Y-108765544D01*
X144198383Y-108784488D01*
X144140210Y-108908952D01*
X144103105Y-109002008D01*
X144082390Y-109080778D01*
X144073390Y-109162388D01*
X144071429Y-109263963D01*
X143643634Y-109263963D01*
X143690620Y-109080173D01*
X143799761Y-108809002D01*
X143947711Y-108567445D01*
X144140161Y-108344563D01*
X144169758Y-108315460D01*
X144418090Y-108112601D01*
X144689746Y-107961230D01*
X144987327Y-107860157D01*
X145313436Y-107808192D01*
X145374684Y-107802594D01*
X145467555Y-107788967D01*
X145518195Y-107770598D01*
X145536742Y-107744599D01*
X145536503Y-107740765D01*
X145511844Y-107707827D01*
X145447235Y-107649374D01*
X145341136Y-107564203D01*
X145192006Y-107451109D01*
X144998304Y-107308889D01*
X144758490Y-107136337D01*
X144588479Y-107014379D01*
X144388293Y-106868770D01*
X144230771Y-106751250D01*
X144159111Y-106695443D01*
X144375906Y-106695443D01*
X144377921Y-106722855D01*
X144390013Y-106751266D01*
X144417400Y-106785259D01*
X144465299Y-106829416D01*
X144538925Y-106888320D01*
X144643497Y-106966555D01*
X144784231Y-107068702D01*
X144966344Y-107199344D01*
X145106620Y-107299125D01*
X145260396Y-107406967D01*
X145395257Y-107499890D01*
X145504364Y-107573241D01*
X145580877Y-107622367D01*
X145617958Y-107642616D01*
X145624271Y-107644260D01*
X145709836Y-107639012D01*
X145778636Y-107586861D01*
X145817613Y-107497312D01*
X145824322Y-107448192D01*
X145826703Y-107303473D01*
X145811559Y-107143115D01*
X145781852Y-106991158D01*
X145740543Y-106871646D01*
X145729920Y-106850938D01*
X145625730Y-106715433D01*
X145482298Y-106612140D01*
X145311433Y-106549913D01*
X145304039Y-106548382D01*
X145196968Y-106533523D01*
X145061577Y-106524153D01*
X144912075Y-106520172D01*
X144762672Y-106521475D01*
X144627576Y-106527961D01*
X144520997Y-106539528D01*
X144457143Y-106556072D01*
X144406483Y-106596873D01*
X144376958Y-106681594D01*
X144375906Y-106695443D01*
X144159111Y-106695443D01*
X144113117Y-106659624D01*
X144032539Y-106591698D01*
X143986241Y-106545276D01*
X143971429Y-106518165D01*
X143972256Y-106507574D01*
X143978135Y-106496499D01*
X143993816Y-106487387D01*
X144024032Y-106480047D01*
X144073518Y-106474288D01*
X144147008Y-106469917D01*
X144249236Y-106466744D01*
X144384937Y-106464577D01*
X144558844Y-106463224D01*
X144775691Y-106462495D01*
X145040213Y-106462198D01*
X145357143Y-106462142D01*
X145367021Y-106462142D01*
X145723309Y-106462757D01*
X146023956Y-106464598D01*
X146270417Y-106467750D01*
X146464145Y-106472294D01*
X146606594Y-106478316D01*
X146699218Y-106485898D01*
X146743471Y-106495123D01*
X146740806Y-106506076D01*
X146692678Y-106518839D01*
X146600539Y-106533496D01*
X146486374Y-106560745D01*
X146359686Y-106633929D01*
X146270858Y-106748960D01*
X146269967Y-106750858D01*
X146259043Y-106805048D01*
X146249583Y-106908716D01*
X146241587Y-107054752D01*
X146235055Y-107236052D01*
X146233424Y-107303473D01*
X146229987Y-107445508D01*
G37*
%TD*%
M02*
