%TF.GenerationSoftware,KiCad,Pcbnew,10.0.4*%
%TF.CreationDate,2026-07-16T11:05:54-07:00*%
%TF.ProjectId,adbee,61646265-652e-46b6-9963-61645f706362,v0.1.0*%
%TF.SameCoordinates,Original*%
%TF.FileFunction,AssemblyDrawing,Top*%
%FSLAX46Y46*%
G04 Gerber Fmt 4.6, Leading zero omitted, Abs format (unit mm)*
G04 Created by KiCad (PCBNEW 10.0.4) date 2026-07-16 11:05:54*
%MOMM*%
%LPD*%
G01*
G04 APERTURE LIST*
%ADD10C,0.150000*%
%ADD11C,0.105000*%
%ADD12C,0.075000*%
%ADD13C,0.060000*%
%ADD14C,0.100000*%
%ADD15C,0.127000*%
%ADD16C,0.200000*%
G04 APERTURE END LIST*
D10*
X151130952Y-111364819D02*
X150559524Y-111364819D01*
X150845238Y-111364819D02*
X150845238Y-110364819D01*
X150845238Y-110364819D02*
X150750000Y-110507676D01*
X150750000Y-110507676D02*
X150654762Y-110602914D01*
X150654762Y-110602914D02*
X150559524Y-110650533D01*
X151559524Y-111364819D02*
X151559524Y-110364819D01*
X151654762Y-110983866D02*
X151940476Y-111364819D01*
X151940476Y-110698152D02*
X151559524Y-111079104D01*
D11*
X151133333Y-109623373D02*
X150900000Y-109290040D01*
X150733333Y-109623373D02*
X150733333Y-108923373D01*
X150733333Y-108923373D02*
X151000000Y-108923373D01*
X151000000Y-108923373D02*
X151066667Y-108956706D01*
X151066667Y-108956706D02*
X151100000Y-108990040D01*
X151100000Y-108990040D02*
X151133333Y-109056706D01*
X151133333Y-109056706D02*
X151133333Y-109156706D01*
X151133333Y-109156706D02*
X151100000Y-109223373D01*
X151100000Y-109223373D02*
X151066667Y-109256706D01*
X151066667Y-109256706D02*
X151000000Y-109290040D01*
X151000000Y-109290040D02*
X150733333Y-109290040D01*
X151400000Y-108990040D02*
X151433333Y-108956706D01*
X151433333Y-108956706D02*
X151500000Y-108923373D01*
X151500000Y-108923373D02*
X151666667Y-108923373D01*
X151666667Y-108923373D02*
X151733333Y-108956706D01*
X151733333Y-108956706D02*
X151766667Y-108990040D01*
X151766667Y-108990040D02*
X151800000Y-109056706D01*
X151800000Y-109056706D02*
X151800000Y-109123373D01*
X151800000Y-109123373D02*
X151766667Y-109223373D01*
X151766667Y-109223373D02*
X151366667Y-109623373D01*
X151366667Y-109623373D02*
X151800000Y-109623373D01*
D12*
X136775028Y-109402619D02*
X136751219Y-109450238D01*
X136751219Y-109450238D02*
X136703600Y-109497857D01*
X136703600Y-109497857D02*
X136632171Y-109569285D01*
X136632171Y-109569285D02*
X136608361Y-109616904D01*
X136608361Y-109616904D02*
X136608361Y-109664523D01*
X136727409Y-109640714D02*
X136703600Y-109688333D01*
X136703600Y-109688333D02*
X136655980Y-109735952D01*
X136655980Y-109735952D02*
X136560742Y-109759761D01*
X136560742Y-109759761D02*
X136394076Y-109759761D01*
X136394076Y-109759761D02*
X136298838Y-109735952D01*
X136298838Y-109735952D02*
X136251219Y-109688333D01*
X136251219Y-109688333D02*
X136227409Y-109640714D01*
X136227409Y-109640714D02*
X136227409Y-109545476D01*
X136227409Y-109545476D02*
X136251219Y-109497857D01*
X136251219Y-109497857D02*
X136298838Y-109450238D01*
X136298838Y-109450238D02*
X136394076Y-109426428D01*
X136394076Y-109426428D02*
X136560742Y-109426428D01*
X136560742Y-109426428D02*
X136655980Y-109450238D01*
X136655980Y-109450238D02*
X136703600Y-109497857D01*
X136703600Y-109497857D02*
X136727409Y-109545476D01*
X136727409Y-109545476D02*
X136727409Y-109640714D01*
X136727409Y-108950237D02*
X136727409Y-109235951D01*
X136727409Y-109093094D02*
X136227409Y-109093094D01*
X136227409Y-109093094D02*
X136298838Y-109140713D01*
X136298838Y-109140713D02*
X136346457Y-109188332D01*
X136346457Y-109188332D02*
X136370266Y-109235951D01*
D10*
X145345238Y-110455057D02*
X145392857Y-110407438D01*
X145392857Y-110407438D02*
X145488095Y-110359819D01*
X145488095Y-110359819D02*
X145726190Y-110359819D01*
X145726190Y-110359819D02*
X145821428Y-110407438D01*
X145821428Y-110407438D02*
X145869047Y-110455057D01*
X145869047Y-110455057D02*
X145916666Y-110550295D01*
X145916666Y-110550295D02*
X145916666Y-110645533D01*
X145916666Y-110645533D02*
X145869047Y-110788390D01*
X145869047Y-110788390D02*
X145297619Y-111359819D01*
X145297619Y-111359819D02*
X145916666Y-111359819D01*
X146345238Y-111264580D02*
X146392857Y-111312200D01*
X146392857Y-111312200D02*
X146345238Y-111359819D01*
X146345238Y-111359819D02*
X146297619Y-111312200D01*
X146297619Y-111312200D02*
X146345238Y-111264580D01*
X146345238Y-111264580D02*
X146345238Y-111359819D01*
X146773809Y-110455057D02*
X146821428Y-110407438D01*
X146821428Y-110407438D02*
X146916666Y-110359819D01*
X146916666Y-110359819D02*
X147154761Y-110359819D01*
X147154761Y-110359819D02*
X147249999Y-110407438D01*
X147249999Y-110407438D02*
X147297618Y-110455057D01*
X147297618Y-110455057D02*
X147345237Y-110550295D01*
X147345237Y-110550295D02*
X147345237Y-110645533D01*
X147345237Y-110645533D02*
X147297618Y-110788390D01*
X147297618Y-110788390D02*
X146726190Y-111359819D01*
X146726190Y-111359819D02*
X147345237Y-111359819D01*
X147773809Y-111359819D02*
X147773809Y-110359819D01*
X147869047Y-110978866D02*
X148154761Y-111359819D01*
X148154761Y-110693152D02*
X147773809Y-111074104D01*
D11*
X146633333Y-109623373D02*
X146400000Y-109290040D01*
X146233333Y-109623373D02*
X146233333Y-108923373D01*
X146233333Y-108923373D02*
X146500000Y-108923373D01*
X146500000Y-108923373D02*
X146566667Y-108956706D01*
X146566667Y-108956706D02*
X146600000Y-108990040D01*
X146600000Y-108990040D02*
X146633333Y-109056706D01*
X146633333Y-109056706D02*
X146633333Y-109156706D01*
X146633333Y-109156706D02*
X146600000Y-109223373D01*
X146600000Y-109223373D02*
X146566667Y-109256706D01*
X146566667Y-109256706D02*
X146500000Y-109290040D01*
X146500000Y-109290040D02*
X146233333Y-109290040D01*
X147300000Y-109623373D02*
X146900000Y-109623373D01*
X147100000Y-109623373D02*
X147100000Y-108923373D01*
X147100000Y-108923373D02*
X147033333Y-109023373D01*
X147033333Y-109023373D02*
X146966667Y-109090040D01*
X146966667Y-109090040D02*
X146900000Y-109123373D01*
D10*
X136321547Y-97350819D02*
X136321547Y-96350819D01*
X136321547Y-96350819D02*
X136654880Y-97065104D01*
X136654880Y-97065104D02*
X136988213Y-96350819D01*
X136988213Y-96350819D02*
X136988213Y-97350819D01*
X137607261Y-97350819D02*
X137512023Y-97303200D01*
X137512023Y-97303200D02*
X137464404Y-97255580D01*
X137464404Y-97255580D02*
X137416785Y-97160342D01*
X137416785Y-97160342D02*
X137416785Y-96874628D01*
X137416785Y-96874628D02*
X137464404Y-96779390D01*
X137464404Y-96779390D02*
X137512023Y-96731771D01*
X137512023Y-96731771D02*
X137607261Y-96684152D01*
X137607261Y-96684152D02*
X137750118Y-96684152D01*
X137750118Y-96684152D02*
X137845356Y-96731771D01*
X137845356Y-96731771D02*
X137892975Y-96779390D01*
X137892975Y-96779390D02*
X137940594Y-96874628D01*
X137940594Y-96874628D02*
X137940594Y-97160342D01*
X137940594Y-97160342D02*
X137892975Y-97255580D01*
X137892975Y-97255580D02*
X137845356Y-97303200D01*
X137845356Y-97303200D02*
X137750118Y-97350819D01*
X137750118Y-97350819D02*
X137607261Y-97350819D01*
X138797737Y-97350819D02*
X138797737Y-96350819D01*
X138797737Y-97303200D02*
X138702499Y-97350819D01*
X138702499Y-97350819D02*
X138512023Y-97350819D01*
X138512023Y-97350819D02*
X138416785Y-97303200D01*
X138416785Y-97303200D02*
X138369166Y-97255580D01*
X138369166Y-97255580D02*
X138321547Y-97160342D01*
X138321547Y-97160342D02*
X138321547Y-96874628D01*
X138321547Y-96874628D02*
X138369166Y-96779390D01*
X138369166Y-96779390D02*
X138416785Y-96731771D01*
X138416785Y-96731771D02*
X138512023Y-96684152D01*
X138512023Y-96684152D02*
X138702499Y-96684152D01*
X138702499Y-96684152D02*
X138797737Y-96731771D01*
X139702499Y-96684152D02*
X139702499Y-97350819D01*
X139273928Y-96684152D02*
X139273928Y-97207961D01*
X139273928Y-97207961D02*
X139321547Y-97303200D01*
X139321547Y-97303200D02*
X139416785Y-97350819D01*
X139416785Y-97350819D02*
X139559642Y-97350819D01*
X139559642Y-97350819D02*
X139654880Y-97303200D01*
X139654880Y-97303200D02*
X139702499Y-97255580D01*
X140321547Y-97350819D02*
X140226309Y-97303200D01*
X140226309Y-97303200D02*
X140178690Y-97207961D01*
X140178690Y-97207961D02*
X140178690Y-96350819D01*
X141083452Y-97303200D02*
X140988214Y-97350819D01*
X140988214Y-97350819D02*
X140797738Y-97350819D01*
X140797738Y-97350819D02*
X140702500Y-97303200D01*
X140702500Y-97303200D02*
X140654881Y-97207961D01*
X140654881Y-97207961D02*
X140654881Y-96827009D01*
X140654881Y-96827009D02*
X140702500Y-96731771D01*
X140702500Y-96731771D02*
X140797738Y-96684152D01*
X140797738Y-96684152D02*
X140988214Y-96684152D01*
X140988214Y-96684152D02*
X141083452Y-96731771D01*
X141083452Y-96731771D02*
X141131071Y-96827009D01*
X141131071Y-96827009D02*
X141131071Y-96922247D01*
X141131071Y-96922247D02*
X140654881Y-97017485D01*
X141321548Y-97446057D02*
X142083452Y-97446057D01*
X142226310Y-96350819D02*
X142892976Y-97350819D01*
X142892976Y-96350819D02*
X142226310Y-97350819D01*
X143273929Y-97350819D02*
X143273929Y-96350819D01*
X143702500Y-97065104D02*
X144178690Y-97065104D01*
X143607262Y-97350819D02*
X143940595Y-96350819D01*
X143940595Y-96350819D02*
X144273928Y-97350819D01*
X144797738Y-96350819D02*
X144988214Y-96350819D01*
X144988214Y-96350819D02*
X145083452Y-96398438D01*
X145083452Y-96398438D02*
X145178690Y-96493676D01*
X145178690Y-96493676D02*
X145226309Y-96684152D01*
X145226309Y-96684152D02*
X145226309Y-97017485D01*
X145226309Y-97017485D02*
X145178690Y-97207961D01*
X145178690Y-97207961D02*
X145083452Y-97303200D01*
X145083452Y-97303200D02*
X144988214Y-97350819D01*
X144988214Y-97350819D02*
X144797738Y-97350819D01*
X144797738Y-97350819D02*
X144702500Y-97303200D01*
X144702500Y-97303200D02*
X144607262Y-97207961D01*
X144607262Y-97207961D02*
X144559643Y-97017485D01*
X144559643Y-97017485D02*
X144559643Y-96684152D01*
X144559643Y-96684152D02*
X144607262Y-96493676D01*
X144607262Y-96493676D02*
X144702500Y-96398438D01*
X144702500Y-96398438D02*
X144797738Y-96350819D01*
X145654881Y-96969866D02*
X146416786Y-96969866D01*
X146892976Y-96827009D02*
X147226309Y-96827009D01*
X147369166Y-97350819D02*
X146892976Y-97350819D01*
X146892976Y-97350819D02*
X146892976Y-96350819D01*
X146892976Y-96350819D02*
X147369166Y-96350819D01*
X147750119Y-97303200D02*
X147892976Y-97350819D01*
X147892976Y-97350819D02*
X148131071Y-97350819D01*
X148131071Y-97350819D02*
X148226309Y-97303200D01*
X148226309Y-97303200D02*
X148273928Y-97255580D01*
X148273928Y-97255580D02*
X148321547Y-97160342D01*
X148321547Y-97160342D02*
X148321547Y-97065104D01*
X148321547Y-97065104D02*
X148273928Y-96969866D01*
X148273928Y-96969866D02*
X148226309Y-96922247D01*
X148226309Y-96922247D02*
X148131071Y-96874628D01*
X148131071Y-96874628D02*
X147940595Y-96827009D01*
X147940595Y-96827009D02*
X147845357Y-96779390D01*
X147845357Y-96779390D02*
X147797738Y-96731771D01*
X147797738Y-96731771D02*
X147750119Y-96636533D01*
X147750119Y-96636533D02*
X147750119Y-96541295D01*
X147750119Y-96541295D02*
X147797738Y-96446057D01*
X147797738Y-96446057D02*
X147845357Y-96398438D01*
X147845357Y-96398438D02*
X147940595Y-96350819D01*
X147940595Y-96350819D02*
X148178690Y-96350819D01*
X148178690Y-96350819D02*
X148321547Y-96398438D01*
X148750119Y-97350819D02*
X148750119Y-96350819D01*
X148750119Y-96350819D02*
X149131071Y-96350819D01*
X149131071Y-96350819D02*
X149226309Y-96398438D01*
X149226309Y-96398438D02*
X149273928Y-96446057D01*
X149273928Y-96446057D02*
X149321547Y-96541295D01*
X149321547Y-96541295D02*
X149321547Y-96684152D01*
X149321547Y-96684152D02*
X149273928Y-96779390D01*
X149273928Y-96779390D02*
X149226309Y-96827009D01*
X149226309Y-96827009D02*
X149131071Y-96874628D01*
X149131071Y-96874628D02*
X148750119Y-96874628D01*
X149654881Y-96350819D02*
X150273928Y-96350819D01*
X150273928Y-96350819D02*
X149940595Y-96731771D01*
X149940595Y-96731771D02*
X150083452Y-96731771D01*
X150083452Y-96731771D02*
X150178690Y-96779390D01*
X150178690Y-96779390D02*
X150226309Y-96827009D01*
X150226309Y-96827009D02*
X150273928Y-96922247D01*
X150273928Y-96922247D02*
X150273928Y-97160342D01*
X150273928Y-97160342D02*
X150226309Y-97255580D01*
X150226309Y-97255580D02*
X150178690Y-97303200D01*
X150178690Y-97303200D02*
X150083452Y-97350819D01*
X150083452Y-97350819D02*
X149797738Y-97350819D01*
X149797738Y-97350819D02*
X149702500Y-97303200D01*
X149702500Y-97303200D02*
X149654881Y-97255580D01*
X150654881Y-96446057D02*
X150702500Y-96398438D01*
X150702500Y-96398438D02*
X150797738Y-96350819D01*
X150797738Y-96350819D02*
X151035833Y-96350819D01*
X151035833Y-96350819D02*
X151131071Y-96398438D01*
X151131071Y-96398438D02*
X151178690Y-96446057D01*
X151178690Y-96446057D02*
X151226309Y-96541295D01*
X151226309Y-96541295D02*
X151226309Y-96636533D01*
X151226309Y-96636533D02*
X151178690Y-96779390D01*
X151178690Y-96779390D02*
X150607262Y-97350819D01*
X150607262Y-97350819D02*
X151226309Y-97350819D01*
X151607262Y-97303200D02*
X151750119Y-97350819D01*
X151750119Y-97350819D02*
X151988214Y-97350819D01*
X151988214Y-97350819D02*
X152083452Y-97303200D01*
X152083452Y-97303200D02*
X152131071Y-97255580D01*
X152131071Y-97255580D02*
X152178690Y-97160342D01*
X152178690Y-97160342D02*
X152178690Y-97065104D01*
X152178690Y-97065104D02*
X152131071Y-96969866D01*
X152131071Y-96969866D02*
X152083452Y-96922247D01*
X152083452Y-96922247D02*
X151988214Y-96874628D01*
X151988214Y-96874628D02*
X151797738Y-96827009D01*
X151797738Y-96827009D02*
X151702500Y-96779390D01*
X151702500Y-96779390D02*
X151654881Y-96731771D01*
X151654881Y-96731771D02*
X151607262Y-96636533D01*
X151607262Y-96636533D02*
X151607262Y-96541295D01*
X151607262Y-96541295D02*
X151654881Y-96446057D01*
X151654881Y-96446057D02*
X151702500Y-96398438D01*
X151702500Y-96398438D02*
X151797738Y-96350819D01*
X151797738Y-96350819D02*
X152035833Y-96350819D01*
X152035833Y-96350819D02*
X152178690Y-96398438D01*
X152512024Y-96350819D02*
X153131071Y-96350819D01*
X153131071Y-96350819D02*
X152797738Y-96731771D01*
X152797738Y-96731771D02*
X152940595Y-96731771D01*
X152940595Y-96731771D02*
X153035833Y-96779390D01*
X153035833Y-96779390D02*
X153083452Y-96827009D01*
X153083452Y-96827009D02*
X153131071Y-96922247D01*
X153131071Y-96922247D02*
X153131071Y-97160342D01*
X153131071Y-97160342D02*
X153083452Y-97255580D01*
X153083452Y-97255580D02*
X153035833Y-97303200D01*
X153035833Y-97303200D02*
X152940595Y-97350819D01*
X152940595Y-97350819D02*
X152654881Y-97350819D01*
X152654881Y-97350819D02*
X152559643Y-97303200D01*
X152559643Y-97303200D02*
X152512024Y-97255580D01*
X143892976Y-99890819D02*
X143892976Y-98890819D01*
X143892976Y-98890819D02*
X144226309Y-99605104D01*
X144226309Y-99605104D02*
X144559642Y-98890819D01*
X144559642Y-98890819D02*
X144559642Y-99890819D01*
X145559642Y-99890819D02*
X144988214Y-99890819D01*
X145273928Y-99890819D02*
X145273928Y-98890819D01*
X145273928Y-98890819D02*
X145178690Y-99033676D01*
X145178690Y-99033676D02*
X145083452Y-99128914D01*
X145083452Y-99128914D02*
X144988214Y-99176533D01*
D13*
X142154762Y-109486927D02*
X142154762Y-109086927D01*
X142154762Y-109086927D02*
X142250000Y-109086927D01*
X142250000Y-109086927D02*
X142307143Y-109105975D01*
X142307143Y-109105975D02*
X142345238Y-109144070D01*
X142345238Y-109144070D02*
X142364285Y-109182165D01*
X142364285Y-109182165D02*
X142383333Y-109258356D01*
X142383333Y-109258356D02*
X142383333Y-109315499D01*
X142383333Y-109315499D02*
X142364285Y-109391689D01*
X142364285Y-109391689D02*
X142345238Y-109429784D01*
X142345238Y-109429784D02*
X142307143Y-109467880D01*
X142307143Y-109467880D02*
X142250000Y-109486927D01*
X142250000Y-109486927D02*
X142154762Y-109486927D01*
X142764285Y-109486927D02*
X142535714Y-109486927D01*
X142650000Y-109486927D02*
X142650000Y-109086927D01*
X142650000Y-109086927D02*
X142611904Y-109144070D01*
X142611904Y-109144070D02*
X142573809Y-109182165D01*
X142573809Y-109182165D02*
X142535714Y-109201213D01*
D10*
X141532619Y-123259819D02*
X141532619Y-122259819D01*
X141532619Y-122259819D02*
X141865952Y-122974104D01*
X141865952Y-122974104D02*
X142199285Y-122259819D01*
X142199285Y-122259819D02*
X142199285Y-123259819D01*
X142675476Y-123259819D02*
X142675476Y-122259819D01*
X142675476Y-122259819D02*
X142913571Y-122259819D01*
X142913571Y-122259819D02*
X143056428Y-122307438D01*
X143056428Y-122307438D02*
X143151666Y-122402676D01*
X143151666Y-122402676D02*
X143199285Y-122497914D01*
X143199285Y-122497914D02*
X143246904Y-122688390D01*
X143246904Y-122688390D02*
X143246904Y-122831247D01*
X143246904Y-122831247D02*
X143199285Y-123021723D01*
X143199285Y-123021723D02*
X143151666Y-123116961D01*
X143151666Y-123116961D02*
X143056428Y-123212200D01*
X143056428Y-123212200D02*
X142913571Y-123259819D01*
X142913571Y-123259819D02*
X142675476Y-123259819D01*
X143675476Y-122878866D02*
X144437381Y-122878866D01*
X145342142Y-122593152D02*
X145342142Y-123259819D01*
X145104047Y-122212200D02*
X144865952Y-122926485D01*
X144865952Y-122926485D02*
X145484999Y-122926485D01*
X146056428Y-122259819D02*
X146151666Y-122259819D01*
X146151666Y-122259819D02*
X146246904Y-122307438D01*
X146246904Y-122307438D02*
X146294523Y-122355057D01*
X146294523Y-122355057D02*
X146342142Y-122450295D01*
X146342142Y-122450295D02*
X146389761Y-122640771D01*
X146389761Y-122640771D02*
X146389761Y-122878866D01*
X146389761Y-122878866D02*
X146342142Y-123069342D01*
X146342142Y-123069342D02*
X146294523Y-123164580D01*
X146294523Y-123164580D02*
X146246904Y-123212200D01*
X146246904Y-123212200D02*
X146151666Y-123259819D01*
X146151666Y-123259819D02*
X146056428Y-123259819D01*
X146056428Y-123259819D02*
X145961190Y-123212200D01*
X145961190Y-123212200D02*
X145913571Y-123164580D01*
X145913571Y-123164580D02*
X145865952Y-123069342D01*
X145865952Y-123069342D02*
X145818333Y-122878866D01*
X145818333Y-122878866D02*
X145818333Y-122640771D01*
X145818333Y-122640771D02*
X145865952Y-122450295D01*
X145865952Y-122450295D02*
X145913571Y-122355057D01*
X145913571Y-122355057D02*
X145961190Y-122307438D01*
X145961190Y-122307438D02*
X146056428Y-122259819D01*
X146770714Y-123212200D02*
X146913571Y-123259819D01*
X146913571Y-123259819D02*
X147151666Y-123259819D01*
X147151666Y-123259819D02*
X147246904Y-123212200D01*
X147246904Y-123212200D02*
X147294523Y-123164580D01*
X147294523Y-123164580D02*
X147342142Y-123069342D01*
X147342142Y-123069342D02*
X147342142Y-122974104D01*
X147342142Y-122974104D02*
X147294523Y-122878866D01*
X147294523Y-122878866D02*
X147246904Y-122831247D01*
X147246904Y-122831247D02*
X147151666Y-122783628D01*
X147151666Y-122783628D02*
X146961190Y-122736009D01*
X146961190Y-122736009D02*
X146865952Y-122688390D01*
X146865952Y-122688390D02*
X146818333Y-122640771D01*
X146818333Y-122640771D02*
X146770714Y-122545533D01*
X146770714Y-122545533D02*
X146770714Y-122450295D01*
X146770714Y-122450295D02*
X146818333Y-122355057D01*
X146818333Y-122355057D02*
X146865952Y-122307438D01*
X146865952Y-122307438D02*
X146961190Y-122259819D01*
X146961190Y-122259819D02*
X147199285Y-122259819D01*
X147199285Y-122259819D02*
X147342142Y-122307438D01*
X147770714Y-123259819D02*
X147770714Y-122259819D01*
X147770714Y-122259819D02*
X148104047Y-122974104D01*
X148104047Y-122974104D02*
X148437380Y-122259819D01*
X148437380Y-122259819D02*
X148437380Y-123259819D01*
%TO.C,R2*%
D14*
X150450000Y-108905000D02*
X152050000Y-108905000D01*
X152050000Y-109705000D01*
X150450000Y-109705000D01*
X150450000Y-108905000D01*
%TO.C,Q1*%
X135200000Y-108155000D02*
X135200000Y-108655000D01*
X135200000Y-108655000D02*
X135800000Y-108655000D01*
X135200000Y-110055000D02*
X135200000Y-110555000D01*
X135200000Y-110555000D02*
X135800000Y-110555000D01*
X135800000Y-107835000D02*
X135800000Y-110855000D01*
X135800000Y-107835000D02*
X137200000Y-107835000D01*
X135800000Y-108155000D02*
X135200000Y-108155000D01*
X135800000Y-110055000D02*
X135200000Y-110055000D01*
X135800000Y-110875000D02*
X137200000Y-110875000D01*
X137200000Y-107835000D02*
X137200000Y-110875000D01*
X137200000Y-109605000D02*
X137800000Y-109605000D01*
X137800000Y-109105000D02*
X137200000Y-109105000D01*
X137800000Y-109605000D02*
X137800000Y-109105000D01*
%TO.C,R1*%
X145950000Y-108905000D02*
X147550000Y-108905000D01*
X147550000Y-109705000D01*
X145950000Y-109705000D01*
X145950000Y-108905000D01*
%TO.C,D1*%
X141200000Y-109155000D02*
X141200000Y-109455000D01*
X141200000Y-109155000D02*
X141550000Y-109155000D01*
X141200000Y-109455000D02*
X141550000Y-109455000D01*
X141550000Y-108605000D02*
X143350000Y-108605000D01*
X141550000Y-110005000D02*
X141550000Y-108605000D01*
X143350000Y-108605000D02*
X143350000Y-110005000D01*
X143350000Y-110005000D02*
X141550000Y-110005000D01*
X143700000Y-109155000D02*
X143350000Y-109155000D01*
X143700000Y-109455000D02*
X143350000Y-109455000D01*
X143700000Y-109455000D02*
X143700000Y-109155000D01*
%TO.C,J1*%
D15*
X138000000Y-111700000D02*
X152000000Y-111700000D01*
X138000000Y-124700000D02*
X138000000Y-111700000D01*
X152000000Y-111700000D02*
X152000000Y-124700000D01*
X152000000Y-124700000D02*
X138000000Y-124700000D01*
D16*
X153215000Y-116200000D02*
G75*
G02*
X153015000Y-116200000I-100000J0D01*
G01*
X153015000Y-116200000D02*
G75*
G02*
X153215000Y-116200000I100000J0D01*
G01*
%TD*%
M02*
